<svg width="1623" height="1389" viewBox="0 0 1623 1389" fill="none" xmlns="http://www.w3.org/2000/svg">
<g clip-path="url(#clip0_264_357)">
<path d="M-34 65C104 114.667 380 267 380 479C380 744 1012.5 1199 1293.5 1231C1518.3 1256.6 1783.5 1358.67 1888 1406.5" stroke="white" stroke-width="3"/>
<path d="M588.5 58.5C544.667 156.333 483.3 394.4 588.5 564C720 776 1344 1014.5 1518 998.5C1657.2 985.7 1867 1122.5 1954.5 1192.5M-32 612.5C137.333 695.833 476 914.1 476 1120.5C476 1326.9 757 1513.17 897.5 1580.5C1104.67 1702.67 1592.3 1873.7 1885.5 1580.5" stroke="white" stroke-width="3"/>
</g>
<defs>
<clipPath id="clip0_264_357">
<rect width="1623" height="1389" fill="white"/>
</clipPath>
</defs>
</svg>
