<svg width="832" height="945" viewBox="0 0 832 945" fill="none" xmlns="http://www.w3.org/2000/svg">
<g clip-path="url(#clip0_261_262)">
<path d="M227 337C227 292.554 241.306 249.289 267.801 213.603C294.295 177.918 331.573 151.708 374.118 138.851C416.664 125.993 462.218 127.171 504.042 142.21C545.866 157.249 581.739 185.35 606.354 222.357C630.97 259.364 643.02 303.311 640.723 347.697C638.427 392.084 621.904 434.552 593.601 468.821C565.297 503.089 526.715 527.337 483.562 537.979C440.409 548.621 394.977 545.09 353.986 527.91L434 337L227 337Z" fill="url(#paint0_linear_261_262)"/>
<path d="M196.717 295.989C187.818 354.624 200.945 414.478 233.565 464.007C266.186 513.537 315.99 549.235 373.373 564.216L434 332L196.717 295.989Z" fill="url(#paint1_linear_261_262)"/>
</g>
<defs>
<linearGradient id="paint0_linear_261_262" x1="434" y1="544" x2="434" y2="130" gradientUnits="userSpaceOnUse">
<stop stop-color="#BF2D00"/>
<stop offset="1" stop-color="#F9CA67" stop-opacity="0.82"/>
</linearGradient>
<linearGradient id="paint1_linear_261_262" x1="346.093" y1="520.372" x2="263.302" y2="316.651" gradientUnits="userSpaceOnUse">
<stop stop-color="#9201AF"/>
<stop offset="1" stop-color="#090083"/>
</linearGradient>
<clipPath id="clip0_261_262">
<rect width="832" height="945" fill="white" transform="matrix(-1 0 0 -1 832 945)"/>
</clipPath>
</defs>
</svg>
