<svg width="1079" height="1007" viewBox="0 0 1079 1007" fill="none" xmlns="http://www.w3.org/2000/svg">
<path d="M152 503C152 419.691 178.849 338.594 228.575 271.706C278.301 204.817 348.263 155.69 428.113 131.59C507.963 107.49 593.459 109.697 671.955 137.886C750.451 166.075 817.778 218.748 863.976 288.114C910.175 357.479 932.792 439.853 928.481 523.051C924.17 606.249 893.161 685.851 840.04 750.084C786.92 814.317 714.509 859.768 633.518 879.715C552.528 899.661 467.261 893.044 390.328 860.841L540.5 503L152 503Z" fill="url(#paint0_linear_261_262)"/>
<path d="M95.1001 435.479C78.3965 545.421 103.036 657.646 164.268 750.514C225.499 843.382 318.985 910.315 426.698 938.405L540.5 503L95.1001 435.479Z" fill="url(#paint1_linear_261_262)"/>
<defs>
<linearGradient id="paint0_linear_261_262" x1="540.5" y1="891" x2="540.5" y2="115" gradientUnits="userSpaceOnUse">
<stop stop-color="#BF2D00"/>
<stop offset="1" stop-color="#F9CA67" stop-opacity="0.82"/>
</linearGradient>
<linearGradient id="paint1_linear_261_262" x1="375.491" y1="856.198" x2="220.382" y2="474.101" gradientUnits="userSpaceOnUse">
<stop stop-color="#9201AF"/>
<stop offset="1" stop-color="#090083"/>
</linearGradient>
</defs>
</svg>
